STARTFONT 2.1
COMMENT  
COMMENT  WARNING:  This bdf file was generated from an X server using
COMMENT  xbdfdump.  The resulting font is subject to the same copyright,
COMMENT  license, and trademark restrictions as the original font.  The
COMMENT  author and distributors of xbdfdump disclaim all liability for
COMMENT  misuse of the program or its output.
COMMENT  
FONT -phaisarn-Fixed-Medium-R-Normal--20-200-75-75-C-100-TIS620-0
SIZE 20 75 75
FONTBOUNDINGBOX 20 22 -9 -5
STARTPROPERTIES 22
FONTNAME_REGISTRY ""
FOUNDRY "Phaisarn"
FAMILY_NAME "Fixed"
WEIGHT_NAME "Medium"
SLANT "R"
SETWIDTH_NAME "Normal"
ADD_STYLE_NAME ""
PIXEL_SIZE 20
POINT_SIZE 200
RESOLUTION_X 75
RESOLUTION_Y 75
SPACING "C"
AVERAGE_WIDTH 100
CHARSET_REGISTRY "TIS620"
CHARSET_ENCODING "0"
COPYRIGHT "Copyright 1997  Phaisarn Techajaruwong, TITech."
WEIGHT 10
X_HEIGHT 18
QUAD_WIDTH 10
DEFAULT_CHAR 0
FONT_ASCENT 18
FONT_DESCENT 5
ENDPROPERTIES
CHARS 224
STARTCHAR C000
ENCODING 0
SWIDTH 480 0
DWIDTH 10 0
BBX 0 0 0 0
BITMAP
ENDCHAR
STARTCHAR C001
ENCODING 1
SWIDTH 480 0
DWIDTH 10 0
BBX 8 8 1 2
BITMAP
18
3c
7e
ff
ff
7e
3c
18
ENDCHAR
STARTCHAR C002
ENCODING 2
SWIDTH 480 0
DWIDTH 10 0
BBX 10 20 0 -5
BITMAP
5540
aa80
5540
aa80
5540
aa80
5540
aa80
5540
aa80
5540
aa80
5540
aa80
5540
aa80
5540
aa80
5540
aa80
ENDCHAR
STARTCHAR C003
ENCODING 3
SWIDTH 480 0
DWIDTH 10 0
BBX 8 14 1 -3
BITMAP
cc
cc
cc
fc
cc
cc
cc
00
3f
0c
0c
0c
0c
0c
ENDCHAR
STARTCHAR C004
ENCODING 4
SWIDTH 480 0
DWIDTH 10 0
BBX 8 14 1 -3
BITMAP
f8
c0
c0
f0
c0
c0
c0
1f
18
18
1e
18
18
18
ENDCHAR
STARTCHAR C005
ENCODING 5
SWIDTH 480 0
DWIDTH 10 0
BBX 8 14 1 -3
BITMAP
78
cc
c0
c0
cc
78
00
3e
33
33
3e
3c
36
33
ENDCHAR
STARTCHAR C006
ENCODING 6
SWIDTH 480 0
DWIDTH 10 0
BBX 7 14 2 -3
BITMAP
c0
c0
c0
c0
c0
f8
00
3e
30
30
3c
30
30
30
ENDCHAR
STARTCHAR C007
ENCODING 7
SWIDTH 480 0
DWIDTH 10 0
BBX 6 5 2 8
BITMAP
78
cc
cc
cc
78
ENDCHAR
STARTCHAR C010
ENCODING 8
SWIDTH 480 0
DWIDTH 10 0
BBX 8 7 1 0
BITMAP
18
18
ff
18
18
00
ff
ENDCHAR
STARTCHAR C011
ENCODING 9
SWIDTH 480 0
DWIDTH 10 0
BBX 8 14 1 -3
BITMAP
cc
ec
fc
fc
dc
cc
00
18
18
18
18
18
18
1f
ENDCHAR
STARTCHAR C012
ENCODING 10
SWIDTH 480 0
DWIDTH 10 0
BBX 8 14 1 -3
BITMAP
cc
cc
cc
78
78
30
30
00
3f
0c
0c
0c
0c
0c
ENDCHAR
STARTCHAR C013
ENCODING 11
SWIDTH 480 0
DWIDTH 10 0
BBX 6 10 0 5
BITMAP
0c
0c
0c
0c
0c
0c
0c
0c
0c
fc
ENDCHAR
STARTCHAR C014
ENCODING 12
SWIDTH 480 0
DWIDTH 10 0
BBX 6 11 0 -5
BITMAP
fc
0c
0c
0c
0c
0c
0c
0c
0c
0c
0c
ENDCHAR
STARTCHAR C015
ENCODING 13
SWIDTH 480 0
DWIDTH 10 0
BBX 6 11 4 -5
BITMAP
fc
c0
c0
c0
c0
c0
c0
c0
c0
c0
c0
ENDCHAR
STARTCHAR C016
ENCODING 14
SWIDTH 480 0
DWIDTH 10 0
BBX 6 10 4 5
BITMAP
c0
c0
c0
c0
c0
c0
c0
c0
c0
fc
ENDCHAR
STARTCHAR C017
ENCODING 15
SWIDTH 480 0
DWIDTH 10 0
BBX 10 20 0 -5
BITMAP
0c00
0c00
0c00
0c00
0c00
0c00
0c00
0c00
0c00
ffc0
0c00
0c00
0c00
0c00
0c00
0c00
0c00
0c00
0c00
0c00
ENDCHAR
STARTCHAR C020
ENCODING 16
SWIDTH 480 0
DWIDTH 10 0
BBX 10 1 0 10
BITMAP
ffc0
ENDCHAR
STARTCHAR C021
ENCODING 17
SWIDTH 480 0
DWIDTH 10 0
BBX 10 1 0 8
BITMAP
ffc0
ENDCHAR
STARTCHAR C022
ENCODING 18
SWIDTH 480 0
DWIDTH 10 0
BBX 10 1 0 5
BITMAP
ffc0
ENDCHAR
STARTCHAR C023
ENCODING 19
SWIDTH 480 0
DWIDTH 10 0
BBX 10 1 0 2
BITMAP
ffc0
ENDCHAR
STARTCHAR C024
ENCODING 20
SWIDTH 480 0
DWIDTH 10 0
BBX 10 1 0 -1
BITMAP
ffc0
ENDCHAR
STARTCHAR C025
ENCODING 21
SWIDTH 480 0
DWIDTH 10 0
BBX 6 20 4 -5
BITMAP
c0
c0
c0
c0
c0
c0
c0
c0
c0
fc
c0
c0
c0
c0
c0
c0
c0
c0
c0
c0
ENDCHAR
STARTCHAR C026
ENCODING 22
SWIDTH 480 0
DWIDTH 10 0
BBX 6 20 0 -5
BITMAP
0c
0c
0c
0c
0c
0c
0c
0c
0c
fc
0c
0c
0c
0c
0c
0c
0c
0c
0c
0c
ENDCHAR
STARTCHAR C027
ENCODING 23
SWIDTH 480 0
DWIDTH 10 0
BBX 10 10 0 5
BITMAP
0c00
0c00
0c00
0c00
0c00
0c00
0c00
0c00
0c00
ffc0
ENDCHAR
STARTCHAR C030
ENCODING 24
SWIDTH 480 0
DWIDTH 10 0
BBX 10 11 0 -5
BITMAP
ffc0
0c00
0c00
0c00
0c00
0c00
0c00
0c00
0c00
0c00
0c00
ENDCHAR
STARTCHAR C031
ENCODING 25
SWIDTH 480 0
DWIDTH 10 0
BBX 2 20 4 -5
BITMAP
c0
c0
c0
c0
c0
c0
c0
c0
c0
c0
c0
c0
c0
c0
c0
c0
c0
c0
c0
c0
ENDCHAR
STARTCHAR C032
ENCODING 26
SWIDTH 480 0
DWIDTH 10 0
BBX 9 10 1 0
BITMAP
0380
0e00
3800
e000
3800
0e00
0380
0000
0000
ff80
ENDCHAR
STARTCHAR C033
ENCODING 27
SWIDTH 480 0
DWIDTH 10 0
BBX 9 10 1 0
BITMAP
e000
3800
0e00
0380
0e00
3800
e000
0000
0000
ff80
ENDCHAR
STARTCHAR C034
ENCODING 28
SWIDTH 480 0
DWIDTH 10 0
BBX 8 8 1 0
BITMAP
01
7f
b6
36
36
36
36
66
ENDCHAR
STARTCHAR C035
ENCODING 29
SWIDTH 480 0
DWIDTH 10 0
BBX 9 8 1 1
BITMAP
0300
0600
ff80
0c00
1800
ff80
3000
6000
ENDCHAR
STARTCHAR C036
ENCODING 30
SWIDTH 480 0
DWIDTH 10 0
BBX 9 13 1 0
BITMAP
1e00
3300
3300
3000
3000
3000
fc00
3000
3000
3000
f800
ad80
e700
ENDCHAR
STARTCHAR C037
ENCODING 31
SWIDTH 480 0
DWIDTH 10 0
BBX 2 2 4 5
BITMAP
c0
c0
ENDCHAR
STARTCHAR space
ENCODING 32
SWIDTH 480 0
DWIDTH 10 0
BBX 0 0 0 0
BITMAP
ENDCHAR
STARTCHAR exclam
ENCODING 33
SWIDTH 480 0
DWIDTH 10 0
BBX 2 13 4 0
BITMAP
c0
c0
c0
c0
c0
c0
c0
c0
c0
c0
00
c0
c0
ENDCHAR
STARTCHAR quotedbl
ENCODING 34
SWIDTH 480 0
DWIDTH 10 0
BBX 6 4 2 9
BITMAP
cc
cc
cc
48
ENDCHAR
STARTCHAR numbersign
ENCODING 35
SWIDTH 480 0
DWIDTH 10 0
BBX 9 11 1 1
BITMAP
1b00
1b00
1b00
7f80
3600
3600
3600
ff00
6c00
6c00
6c00
ENDCHAR
STARTCHAR dollar
ENCODING 36
SWIDTH 480 0
DWIDTH 10 0
BBX 8 13 1 0
BITMAP
18
7e
db
d8
d8
d8
7e
1b
1b
1b
db
7e
18
ENDCHAR
STARTCHAR percent
ENCODING 37
SWIDTH 480 0
DWIDTH 10 0
BBX 9 12 1 0
BITMAP
7300
db00
de00
7600
0c00
0c00
1800
1800
3700
3d80
6d80
6700
ENDCHAR
STARTCHAR ampersand
ENCODING 38
SWIDTH 480 0
DWIDTH 10 0
BBX 9 13 1 0
BITMAP
3800
6c00
6c00
6c00
7800
3000
7000
d800
cd80
c700
c600
ef00
7980
ENDCHAR
STARTCHAR apostrophe
ENCODING 39
SWIDTH 480 0
DWIDTH 10 0
BBX 5 3 3 10
BITMAP
78
70
c0
ENDCHAR
STARTCHAR parenleft
ENCODING 40
SWIDTH 480 0
DWIDTH 10 0
BBX 5 13 3 0
BITMAP
18
30
60
60
c0
c0
c0
c0
c0
60
60
30
18
ENDCHAR
STARTCHAR parenright
ENCODING 41
SWIDTH 480 0
DWIDTH 10 0
BBX 5 13 2 0
BITMAP
c0
60
30
30
18
18
18
18
18
30
30
60
c0
ENDCHAR
STARTCHAR asterisk
ENCODING 42
SWIDTH 480 0
DWIDTH 10 0
BBX 8 7 1 3
BITMAP
66
66
3c
ff
3c
66
66
ENDCHAR
STARTCHAR plus
ENCODING 43
SWIDTH 480 0
DWIDTH 10 0
BBX 8 7 1 3
BITMAP
18
18
18
ff
18
18
18
ENDCHAR
STARTCHAR comma
ENCODING 44
SWIDTH 480 0
DWIDTH 10 0
BBX 4 3 3 -1
BITMAP
70
70
c0
ENDCHAR
STARTCHAR minus
ENCODING 45
SWIDTH 480 0
DWIDTH 10 0
BBX 8 1 1 6
BITMAP
ff
ENDCHAR
STARTCHAR period
ENCODING 46
SWIDTH 480 0
DWIDTH 10 0
BBX 3 3 4 0
BITMAP
e0
e0
e0
ENDCHAR
STARTCHAR slash
ENCODING 47
SWIDTH 480 0
DWIDTH 10 0
BBX 7 12 2 0
BITMAP
06
06
0c
0c
18
18
30
30
60
60
c0
c0
ENDCHAR
STARTCHAR 0
ENCODING 48
SWIDTH 480 0
DWIDTH 10 0
BBX 8 13 1 0
BITMAP
18
3c
66
66
c3
c3
c3
c3
c3
66
66
3c
18
ENDCHAR
STARTCHAR 1
ENCODING 49
SWIDTH 480 0
DWIDTH 10 0
BBX 8 13 1 0
BITMAP
18
38
78
d8
18
18
18
18
18
18
18
18
ff
ENDCHAR
STARTCHAR 2
ENCODING 50
SWIDTH 480 0
DWIDTH 10 0
BBX 8 13 1 0
BITMAP
3c
66
c3
c3
03
03
06
1c
30
60
c0
c0
ff
ENDCHAR
STARTCHAR 3
ENCODING 51
SWIDTH 480 0
DWIDTH 10 0
BBX 8 13 1 0
BITMAP
3c
66
c3
c3
03
06
1c
06
03
c3
c3
66
3c
ENDCHAR
STARTCHAR 4
ENCODING 52
SWIDTH 480 0
DWIDTH 10 0
BBX 8 13 1 0
BITMAP
02
06
0e
1e
36
66
c6
c6
ff
06
06
06
06
ENDCHAR
STARTCHAR 5
ENCODING 53
SWIDTH 480 0
DWIDTH 10 0
BBX 8 13 1 0
BITMAP
ff
c0
c0
c0
c0
dc
e6
03
03
03
c3
66
3c
ENDCHAR
STARTCHAR 6
ENCODING 54
SWIDTH 480 0
DWIDTH 10 0
BBX 8 13 1 0
BITMAP
3c
66
c2
c0
c0
dc
e6
c3
c3
c3
c3
66
3c
ENDCHAR
STARTCHAR 7
ENCODING 55
SWIDTH 480 0
DWIDTH 10 0
BBX 8 13 1 0
BITMAP
ff
03
03
06
06
0c
0c
18
18
30
30
60
60
ENDCHAR
STARTCHAR 8
ENCODING 56
SWIDTH 480 0
DWIDTH 10 0
BBX 8 13 1 0
BITMAP
3c
66
c3
c3
c3
66
3c
66
c3
c3
c3
66
3c
ENDCHAR
STARTCHAR 9
ENCODING 57
SWIDTH 480 0
DWIDTH 10 0
BBX 8 13 1 0
BITMAP
3c
66
c3
c3
c3
c3
67
3b
03
03
43
66
3c
ENDCHAR
STARTCHAR colon
ENCODING 58
SWIDTH 480 0
DWIDTH 10 0
BBX 3 8 4 2
BITMAP
e0
e0
00
00
00
00
e0
e0
ENDCHAR
STARTCHAR semicolon
ENCODING 59
SWIDTH 480 0
DWIDTH 10 0
BBX 4 9 3 1
BITMAP
70
70
00
00
00
00
70
70
e0
ENDCHAR
STARTCHAR less
ENCODING 60
SWIDTH 480 0
DWIDTH 10 0
BBX 7 13 1 0
BITMAP
02
06
0c
18
30
60
c0
60
30
18
0c
06
02
ENDCHAR
STARTCHAR equal
ENCODING 61
SWIDTH 480 0
DWIDTH 10 0
BBX 8 6 1 3
BITMAP
ff
00
00
00
00
ff
ENDCHAR
STARTCHAR greater
ENCODING 62
SWIDTH 480 0
DWIDTH 10 0
BBX 7 13 2 0
BITMAP
80
c0
60
30
18
0c
06
0c
18
30
60
c0
80
ENDCHAR
STARTCHAR question
ENCODING 63
SWIDTH 480 0
DWIDTH 10 0
BBX 8 13 1 0
BITMAP
3c
66
c3
c3
c3
06
0c
18
18
18
00
18
18
ENDCHAR
STARTCHAR at
ENCODING 64
SWIDTH 480 0
DWIDTH 10 0
BBX 8 13 1 0
BITMAP
3c
66
c3
cf
df
db
db
db
de
cc
c0
63
3e
ENDCHAR
STARTCHAR A
ENCODING 65
SWIDTH 480 0
DWIDTH 10 0
BBX 8 13 1 0
BITMAP
18
3c
66
66
c3
c3
c3
ff
c3
c3
c3
c3
c3
ENDCHAR
STARTCHAR B
ENCODING 66
SWIDTH 480 0
DWIDTH 10 0
BBX 8 13 1 0
BITMAP
f8
cc
c6
c6
c6
cc
fc
c6
c3
c3
c3
c6
fc
ENDCHAR
STARTCHAR C
ENCODING 67
SWIDTH 480 0
DWIDTH 10 0
BBX 8 13 1 0
BITMAP
3c
66
c3
c0
c0
c0
c0
c0
c0
c0
c3
66
3c
ENDCHAR
STARTCHAR D
ENCODING 68
SWIDTH 480 0
DWIDTH 10 0
BBX 8 13 1 0
BITMAP
fc
c6
c3
c3
c3
c3
c3
c3
c3
c3
c3
c6
fc
ENDCHAR
STARTCHAR E
ENCODING 69
SWIDTH 480 0
DWIDTH 10 0
BBX 8 13 1 0
BITMAP
ff
c0
c0
c0
c0
c0
fc
c0
c0
c0
c0
c0
ff
ENDCHAR
STARTCHAR F
ENCODING 70
SWIDTH 480 0
DWIDTH 10 0
BBX 8 13 1 0
BITMAP
ff
c0
c0
c0
c0
c0
fc
c0
c0
c0
c0
c0
c0
ENDCHAR
STARTCHAR G
ENCODING 71
SWIDTH 480 0
DWIDTH 10 0
BBX 8 13 1 0
BITMAP
3c
66
c3
c0
c0
c0
cf
c3
c3
c3
c3
67
3d
ENDCHAR
STARTCHAR H
ENCODING 72
SWIDTH 480 0
DWIDTH 10 0
BBX 8 13 1 0
BITMAP
c3
c3
c3
c3
c3
c3
ff
c3
c3
c3
c3
c3
c3
ENDCHAR
STARTCHAR I
ENCODING 73
SWIDTH 480 0
DWIDTH 10 0
BBX 8 13 1 0
BITMAP
ff
18
18
18
18
18
18
18
18
18
18
18
ff
ENDCHAR
STARTCHAR J
ENCODING 74
SWIDTH 480 0
DWIDTH 10 0
BBX 8 13 1 0
BITMAP
1f
03
03
03
03
03
03
03
03
c3
c3
66
3c
ENDCHAR
STARTCHAR K
ENCODING 75
SWIDTH 480 0
DWIDTH 10 0
BBX 8 13 1 0
BITMAP
c3
c3
c6
c6
cc
cc
f8
cc
cc
c6
c6
c3
c3
ENDCHAR
STARTCHAR L
ENCODING 76
SWIDTH 480 0
DWIDTH 10 0
BBX 8 13 1 0
BITMAP
c0
c0
c0
c0
c0
c0
c0
c0
c0
c0
c0
c0
ff
ENDCHAR
STARTCHAR M
ENCODING 77
SWIDTH 480 0
DWIDTH 10 0
BBX 8 13 1 0
BITMAP
c3
c3
e7
e7
ff
db
db
db
db
c3
c3
c3
c3
ENDCHAR
STARTCHAR N
ENCODING 78
SWIDTH 480 0
DWIDTH 10 0
BBX 8 13 1 0
BITMAP
c3
e3
e3
f3
f3
db
db
cf
cf
c7
c7
c3
c3
ENDCHAR
STARTCHAR O
ENCODING 79
SWIDTH 480 0
DWIDTH 10 0
BBX 8 13 1 0
BITMAP
3c
66
c3
c3
c3
c3
c3
c3
c3
c3
c3
66
3c
ENDCHAR
STARTCHAR P
ENCODING 80
SWIDTH 480 0
DWIDTH 10 0
BBX 8 13 1 0
BITMAP
fc
c6
c3
c3
c3
c3
c6
fc
c0
c0
c0
c0
c0
ENDCHAR
STARTCHAR Q
ENCODING 81
SWIDTH 480 0
DWIDTH 10 0
BBX 8 14 1 -1
BITMAP
3c
66
c3
c3
c3
c3
c3
c3
c3
db
cf
66
3e
03
ENDCHAR
STARTCHAR R
ENCODING 82
SWIDTH 480 0
DWIDTH 10 0
BBX 8 13 1 0
BITMAP
fc
c6
c3
c3
c3
c3
c6
fc
cc
c6
c6
c3
c3
ENDCHAR
STARTCHAR S
ENCODING 83
SWIDTH 480 0
DWIDTH 10 0
BBX 8 13 1 0
BITMAP
3c
66
c3
c0
c0
60
3c
06
03
03
c3
66
3c
ENDCHAR
STARTCHAR T
ENCODING 84
SWIDTH 480 0
DWIDTH 10 0
BBX 8 13 1 0
BITMAP
ff
18
18
18
18
18
18
18
18
18
18
18
18
ENDCHAR
STARTCHAR U
ENCODING 85
SWIDTH 480 0
DWIDTH 10 0
BBX 8 13 1 0
BITMAP
c3
c3
c3
c3
c3
c3
c3
c3
c3
c3
c3
66
3c
ENDCHAR
STARTCHAR V
ENCODING 86
SWIDTH 480 0
DWIDTH 10 0
BBX 8 13 1 0
BITMAP
c3
c3
c3
c3
66
66
66
3c
3c
3c
18
18
18
ENDCHAR
STARTCHAR W
ENCODING 87
SWIDTH 480 0
DWIDTH 10 0
BBX 8 13 1 0
BITMAP
c3
c3
c3
c3
c3
db
db
db
db
e7
e7
c3
c3
ENDCHAR
STARTCHAR X
ENCODING 88
SWIDTH 480 0
DWIDTH 10 0
BBX 8 13 1 0
BITMAP
c3
c3
66
66
3c
3c
18
3c
3c
66
66
c3
c3
ENDCHAR
STARTCHAR Y
ENCODING 89
SWIDTH 480 0
DWIDTH 10 0
BBX 8 13 1 0
BITMAP
c3
c3
66
66
3c
3c
18
18
18
18
18
18
18
ENDCHAR
STARTCHAR Z
ENCODING 90
SWIDTH 480 0
DWIDTH 10 0
BBX 8 13 1 0
BITMAP
ff
03
03
06
0c
0c
18
30
30
60
c0
c0
ff
ENDCHAR
STARTCHAR bracketleft
ENCODING 91
SWIDTH 480 0
DWIDTH 10 0
BBX 6 13 2 0
BITMAP
fc
c0
c0
c0
c0
c0
c0
c0
c0
c0
c0
c0
fc
ENDCHAR
STARTCHAR backslash
ENCODING 92
SWIDTH 480 0
DWIDTH 10 0
BBX 7 12 2 0
BITMAP
c0
c0
60
60
30
30
18
18
0c
0c
06
06
ENDCHAR
STARTCHAR bracketright
ENCODING 93
SWIDTH 480 0
DWIDTH 10 0
BBX 6 13 2 0
BITMAP
fc
0c
0c
0c
0c
0c
0c
0c
0c
0c
0c
0c
fc
ENDCHAR
STARTCHAR asciicircum
ENCODING 94
SWIDTH 480 0
DWIDTH 10 0
BBX 8 4 1 9
BITMAP
18
3c
66
c3
ENDCHAR
STARTCHAR underscore
ENCODING 95
SWIDTH 480 0
DWIDTH 10 0
BBX 9 1 1 -1
BITMAP
ff80
ENDCHAR
STARTCHAR grave
ENCODING 96
SWIDTH 480 0
DWIDTH 10 0
BBX 5 3 2 10
BITMAP
f0
70
18
ENDCHAR
STARTCHAR a
ENCODING 97
SWIDTH 480 0
DWIDTH 10 0
BBX 8 8 1 0
BITMAP
3e
63
03
7f
c3
c3
c3
7d
ENDCHAR
STARTCHAR b
ENCODING 98
SWIDTH 480 0
DWIDTH 10 0
BBX 8 13 1 0
BITMAP
c0
c0
c0
c0
c0
dc
e6
c3
c3
c3
c3
e6
dc
ENDCHAR
STARTCHAR c
ENCODING 99
SWIDTH 480 0
DWIDTH 10 0
BBX 8 8 1 0
BITMAP
3e
63
c0
c0
c0
c0
63
3e
ENDCHAR
STARTCHAR d
ENCODING 100
SWIDTH 480 0
DWIDTH 10 0
BBX 8 13 1 0
BITMAP
03
03
03
03
03
3b
67
c3
c3
c3
c3
67
3b
ENDCHAR
STARTCHAR e
ENCODING 101
SWIDTH 480 0
DWIDTH 10 0
BBX 8 8 1 0
BITMAP
3c
66
c3
ff
c0
c0
63
3e
ENDCHAR
STARTCHAR f
ENCODING 102
SWIDTH 480 0
DWIDTH 10 0
BBX 8 13 1 0
BITMAP
1e
33
33
30
30
30
30
fc
30
30
30
30
30
ENDCHAR
STARTCHAR g
ENCODING 103
SWIDTH 480 0
DWIDTH 10 0
BBX 8 12 1 -4
BITMAP
7d
c7
c6
c6
c6
7c
c0
7e
c3
c3
c3
7e
ENDCHAR
STARTCHAR h
ENCODING 104
SWIDTH 480 0
DWIDTH 10 0
BBX 8 13 1 0
BITMAP
c0
c0
c0
c0
c0
dc
e6
c3
c3
c3
c3
c3
c3
ENDCHAR
STARTCHAR i
ENCODING 105
SWIDTH 480 0
DWIDTH 10 0
BBX 8 11 1 0
BITMAP
18
18
00
78
18
18
18
18
18
18
ff
ENDCHAR
STARTCHAR j
ENCODING 106
SWIDTH 480 0
DWIDTH 10 0
BBX 7 15 2 -4
BITMAP
06
06
00
1e
06
06
06
06
06
06
06
c6
c6
c6
7c
ENDCHAR
STARTCHAR k
ENCODING 107
SWIDTH 480 0
DWIDTH 10 0
BBX 8 13 1 0
BITMAP
c0
c0
c0
c0
c0
c6
cc
d8
f0
f8
cc
c6
c3
ENDCHAR
STARTCHAR l
ENCODING 108
SWIDTH 480 0
DWIDTH 10 0
BBX 8 13 1 0
BITMAP
78
18
18
18
18
18
18
18
18
18
18
18
ff
ENDCHAR
STARTCHAR m
ENCODING 109
SWIDTH 480 0
DWIDTH 10 0
BBX 8 8 1 0
BITMAP
b6
ff
db
db
db
db
db
db
ENDCHAR
STARTCHAR n
ENCODING 110
SWIDTH 480 0
DWIDTH 10 0
BBX 8 8 1 0
BITMAP
dc
e6
c3
c3
c3
c3
c3
c3
ENDCHAR
STARTCHAR o
ENCODING 111
SWIDTH 480 0
DWIDTH 10 0
BBX 8 8 1 0
BITMAP
3c
66
c3
c3
c3
c3
66
3c
ENDCHAR
STARTCHAR p
ENCODING 112
SWIDTH 480 0
DWIDTH 10 0
BBX 8 12 1 -4
BITMAP
dc
e6
c3
c3
c3
c3
e6
dc
c0
c0
c0
c0
ENDCHAR
STARTCHAR q
ENCODING 113
SWIDTH 480 0
DWIDTH 10 0
BBX 8 12 1 -4
BITMAP
3b
67
c3
c3
c3
c3
67
3b
03
03
03
03
ENDCHAR
STARTCHAR r
ENCODING 114
SWIDTH 480 0
DWIDTH 10 0
BBX 8 8 1 0
BITMAP
de
73
60
60
60
60
60
60
ENDCHAR
STARTCHAR s
ENCODING 115
SWIDTH 480 0
DWIDTH 10 0
BBX 8 8 1 0
BITMAP
7e
c3
c0
7e
03
03
c3
7e
ENDCHAR
STARTCHAR t
ENCODING 116
SWIDTH 480 0
DWIDTH 10 0
BBX 8 11 1 0
BITMAP
30
30
30
fc
30
30
30
30
30
33
1e
ENDCHAR
STARTCHAR u
ENCODING 117
SWIDTH 480 0
DWIDTH 10 0
BBX 8 8 1 0
BITMAP
c3
c3
c3
c3
c3
c3
67
3b
ENDCHAR
STARTCHAR v
ENCODING 118
SWIDTH 480 0
DWIDTH 10 0
BBX 8 8 1 0
BITMAP
c3
c3
66
66
3c
3c
18
18
ENDCHAR
STARTCHAR w
ENCODING 119
SWIDTH 480 0
DWIDTH 10 0
BBX 8 8 1 0
BITMAP
c3
c3
c3
db
db
db
ff
66
ENDCHAR
STARTCHAR x
ENCODING 120
SWIDTH 480 0
DWIDTH 10 0
BBX 8 8 1 0
BITMAP
c3
66
3c
18
18
3c
66
c3
ENDCHAR
STARTCHAR y
ENCODING 121
SWIDTH 480 0
DWIDTH 10 0
BBX 8 12 1 -4
BITMAP
c3
c3
c3
c3
c3
c3
67
3b
03
c3
66
3c
ENDCHAR
STARTCHAR z
ENCODING 122
SWIDTH 480 0
DWIDTH 10 0
BBX 7 8 2 0
BITMAP
fe
06
0c
18
30
60
c0
fe
ENDCHAR
STARTCHAR braceleft
ENCODING 123
SWIDTH 480 0
DWIDTH 10 0
BBX 8 13 1 0
BITMAP
0f
18
18
18
18
18
f0
18
18
18
18
18
0f
ENDCHAR
STARTCHAR bar
ENCODING 124
SWIDTH 480 0
DWIDTH 10 0
BBX 2 13 4 0
BITMAP
c0
c0
c0
c0
c0
c0
c0
c0
c0
c0
c0
c0
c0
ENDCHAR
STARTCHAR braceright
ENCODING 125
SWIDTH 480 0
DWIDTH 10 0
BBX 8 13 1 0
BITMAP
f0
18
18
18
18
18
0f
18
18
18
18
18
f0
ENDCHAR
STARTCHAR asciitilde
ENCODING 126
SWIDTH 480 0
DWIDTH 10 0
BBX 8 3 1 10
BITMAP
73
db
ce
ENDCHAR
STARTCHAR C177
ENCODING 127
SWIDTH 480 0
DWIDTH 10 0
BBX 0 0 0 0
BITMAP
ENDCHAR
STARTCHAR nobreakspace
ENCODING 160
SWIDTH 480 0
DWIDTH 10 0
BBX 0 0 0 0
BITMAP
ENDCHAR
STARTCHAR exclamdown
ENCODING 161
SWIDTH 480 0
DWIDTH 10 0
BBX 8 9 1 0
BITMAP
7e
c3
63
c3
c3
c3
c3
c3
c3
ENDCHAR
STARTCHAR cent
ENCODING 162
SWIDTH 480 0
DWIDTH 10 0
BBX 8 9 1 0
BITMAP
7b
df
7f
1b
33
33
33
33
7f
ENDCHAR
STARTCHAR sterling
ENCODING 163
SWIDTH 480 0
DWIDTH 10 0
BBX 9 9 1 0
BITMAP
7d80
d780
ef80
bd80
7980
1980
1980
1980
3f80
ENDCHAR
STARTCHAR currency
ENCODING 164
SWIDTH 480 0
DWIDTH 10 0
BBX 8 9 1 0
BITMAP
7e
c3
c3
db
fb
e3
63
63
63
ENDCHAR
STARTCHAR yen
ENCODING 165
SWIDTH 432 0
DWIDTH 9 0
BBX 8 9 1 0
BITMAP
7e
db
c3
db
fb
e3
63
63
63
ENDCHAR
STARTCHAR brokenbar
ENCODING 166
SWIDTH 480 0
DWIDTH 10 0
BBX 10 9 0 0
BITMAP
6cc0
d6c0
c6c0
acc0
6cc0
1cc0
2ec0
2dc0
19c0
ENDCHAR
STARTCHAR section
ENCODING 167
SWIDTH 480 0
DWIDTH 10 0
BBX 8 9 1 0
BITMAP
0e
1b
0f
c3
63
33
1b
0f
07
ENDCHAR
STARTCHAR diaeresis
ENCODING 168
SWIDTH 480 0
DWIDTH 10 0
BBX 8 9 1 0
BITMAP
7e
c3
03
3b
6f
3f
07
03
03
ENDCHAR
STARTCHAR copyright
ENCODING 169
SWIDTH 480 0
DWIDTH 10 0
BBX 9 9 1 0
BITMAP
7e00
c300
0300
7300
d300
7700
3e80
3b80
3300
ENDCHAR
STARTCHAR ordfeminine
ENCODING 170
SWIDTH 480 0
DWIDTH 10 0
BBX 9 10 1 0
BITMAP
0180
7980
af00
6f80
1980
1980
1980
1980
1980
3f80
ENDCHAR
STARTCHAR guillemotleft
ENCODING 171
SWIDTH 480 0
DWIDTH 10 0
BBX 9 10 1 0
BITMAP
0180
7d80
d700
e780
d980
7980
1980
1980
1980
3f80
ENDCHAR
STARTCHAR notsign
ENCODING 172
SWIDTH 480 0
DWIDTH 10 0
BBX 9 9 1 0
BITMAP
7980
cd80
6d80
cd80
cd80
cd80
ef80
d780
6d80
ENDCHAR
STARTCHAR hyphen
ENCODING 173
SWIDTH 480 0
DWIDTH 10 0
BBX 9 12 1 -3
BITMAP
7980
cd80
6d80
cd80
cd80
cd80
ed80
dd80
6f80
0400
0a80
0700
ENDCHAR
STARTCHAR registered
ENCODING 174
SWIDTH 480 0
DWIDTH 10 0
BBX 9 13 1 -4
BITMAP
1f00
3180
1980
3180
3180
3180
7180
b180
6180
0980
1980
2f80
1980
ENDCHAR
STARTCHAR macron
ENCODING 175
SWIDTH 480 0
DWIDTH 10 0
BBX 9 13 1 -4
BITMAP
1f00
3180
1980
3180
3180
3180
7180
b180
6180
1180
3580
5b80
2980
ENDCHAR
STARTCHAR degree
ENCODING 176
SWIDTH 480 0
DWIDTH 10 0
BBX 9 13 1 -4
BITMAP
3d80
6700
7e00
0300
1b00
2f00
1f00
0300
0300
1800
7b00
d700
6b00
ENDCHAR
STARTCHAR plusminus
ENCODING 177
SWIDTH 480 0
DWIDTH 10 0
BBX 10 9 0 0
BITMAP
4b80
ffc0
aec0
5cc0
18c0
18c0
18c0
18c0
18c0
ENDCHAR
STARTCHAR twosuperior
ENCODING 178
SWIDTH 480 0
DWIDTH 10 0
BBX 10 9 0 0
BITMAP
6cc0
d6c0
c6c0
d6c0
eec0
dec0
ffc0
6fc0
66c0
ENDCHAR
STARTCHAR threesuperior
ENCODING 179
SWIDTH 480 0
DWIDTH 10 0
BBX 10 9 0 0
BITMAP
7980
cd80
6d80
cd80
cd80
cd80
efc0
adc0
6d80
ENDCHAR
STARTCHAR acute
ENCODING 180
SWIDTH 480 0
DWIDTH 10 0
BBX 9 9 1 0
BITMAP
7e00
c300
c300
d300
eb00
db00
5b00
7300
6300
ENDCHAR
STARTCHAR mu
ENCODING 181
SWIDTH 480 0
DWIDTH 10 0
BBX 9 9 1 0
BITMAP
7e00
db00
c300
d300
eb00
db00
7b00
7300
6300
ENDCHAR
STARTCHAR paragraph
ENCODING 182
SWIDTH 480 0
DWIDTH 10 0
BBX 9 9 1 0
BITMAP
7e00
c300
6300
c300
c300
c300
e300
b300
6300
ENDCHAR
STARTCHAR periodcentered
ENCODING 183
SWIDTH 480 0
DWIDTH 10 0
BBX 9 9 1 0
BITMAP
6700
bd80
7980
3180
3180
3180
3180
3180
3180
ENDCHAR
STARTCHAR cedilla
ENCODING 184
SWIDTH 480 0
DWIDTH 10 0
BBX 9 9 1 0
BITMAP
3f00
6000
fe00
0300
3300
3300
3300
3300
7f00
ENDCHAR
STARTCHAR onesuperior
ENCODING 185
SWIDTH 480 0
DWIDTH 10 0
BBX 10 9 0 0
BITMAP
6300
b300
7300
3300
3300
3380
3740
3d40
3980
ENDCHAR
STARTCHAR masculine
ENCODING 186
SWIDTH 480 0
DWIDTH 10 0
BBX 9 9 1 0
BITMAP
6180
b180
7180
3180
3180
3180
3180
3180
7f80
ENDCHAR
STARTCHAR guillemotright
ENCODING 187
SWIDTH 480 0
DWIDTH 10 0
BBX 9 13 1 0
BITMAP
0180
0180
0180
0180
6180
b180
7180
3180
3180
3180
3180
3180
7f80
ENDCHAR
STARTCHAR onequarter
ENCODING 188
SWIDTH 480 0
DWIDTH 10 0
BBX 8 9 1 0
BITMAP
63
d3
e3
c3
c3
db
ff
e7
c3
ENDCHAR
STARTCHAR onehalf
ENCODING 189
SWIDTH 480 0
DWIDTH 10 0
BBX 8 13 1 0
BITMAP
03
03
03
03
63
d3
e3
c3
c3
db
ff
e7
c3
ENDCHAR
STARTCHAR threequarters
ENCODING 190
SWIDTH 480 0
DWIDTH 10 0
BBX 9 9 0 0
BITMAP
6180
b180
7180
3580
3580
3f80
3b80
3180
3180
ENDCHAR
STARTCHAR questiondown
ENCODING 191
SWIDTH 480 0
DWIDTH 10 0
BBX 9 13 0 0
BITMAP
0180
0180
0180
0180
6180
b180
7180
3580
3580
3f80
3b80
3180
3180
ENDCHAR
STARTCHAR Agrave
ENCODING 192
SWIDTH 480 0
DWIDTH 10 0
BBX 9 9 1 0
BITMAP
1f00
3180
1980
3180
3180
3180
7180
b180
6180
ENDCHAR
STARTCHAR Aacute
ENCODING 193
SWIDTH 480 0
DWIDTH 10 0
BBX 9 9 1 0
BITMAP
6180
b180
7180
3180
3180
7980
bd80
b380
7180
ENDCHAR
STARTCHAR Acircumflex
ENCODING 194
SWIDTH 480 0
DWIDTH 10 0
BBX 8 9 1 0
BITMAP
63
b3
e3
c3
73
c3
c3
c3
ff
ENDCHAR
STARTCHAR Atilde
ENCODING 195
SWIDTH 480 0
DWIDTH 10 0
BBX 8 9 1 0
BITMAP
3f
60
7e
03
03
03
07
0b
06
ENDCHAR
STARTCHAR Adiaeresis
ENCODING 196
SWIDTH 480 0
DWIDTH 10 0
BBX 8 12 1 -3
BITMAP
7e
c3
63
c3
c3
c3
e3
b3
63
03
03
03
ENDCHAR
STARTCHAR Aring
ENCODING 197
SWIDTH 480 0
DWIDTH 10 0
BBX 8 9 1 0
BITMAP
7e
c3
03
73
cf
c7
e3
d3
63
ENDCHAR
STARTCHAR AE
ENCODING 198
SWIDTH 480 0
DWIDTH 10 0
BBX 9 12 0 -3
BITMAP
1f00
3180
1980
3180
3180
3180
7180
b180
6180
0180
0180
0180
ENDCHAR
STARTCHAR Ccedilla
ENCODING 199
SWIDTH 480 0
DWIDTH 10 0
BBX 8 9 1 0
BITMAP
7e
c3
03
03
03
03
07
0b
06
ENDCHAR
STARTCHAR Egrave
ENCODING 200
SWIDTH 480 0
DWIDTH 10 0
BBX 8 10 1 0
BITMAP
03
7f
c6
c3
db
fb
e3
63
63
63
ENDCHAR
STARTCHAR Eacute
ENCODING 201
SWIDTH 480 0
DWIDTH 10 0
BBX 10 9 0 0
BITMAP
6180
b180
7180
3580
37c0
3180
3180
3180
7f80
ENDCHAR
STARTCHAR Ecircumflex
ENCODING 202
SWIDTH 480 0
DWIDTH 10 0
BBX 8 10 1 0
BITMAP
03
7e
c3
03
7b
cf
c7
e3
d3
63
ENDCHAR
STARTCHAR Ediaeresis
ENCODING 203
SWIDTH 480 0
DWIDTH 10 0
BBX 9 9 0 0
BITMAP
6300
b680
7300
3780
3d80
3980
3180
3180
3180
ENDCHAR
STARTCHAR Igrave
ENCODING 204
SWIDTH 480 0
DWIDTH 10 0
BBX 9 10 0 0
BITMAP
0180
6380
b300
7180
3580
3580
3f80
3b80
3180
3180
ENDCHAR
STARTCHAR Iacute
ENCODING 205
SWIDTH 480 0
DWIDTH 10 0
BBX 8 9 1 0
BITMAP
7e
c3
03
63
d3
e3
c3
c3
ff
ENDCHAR
STARTCHAR Icircumflex
ENCODING 206
SWIDTH 480 0
DWIDTH 10 0
BBX 10 10 1 0
BITMAP
0300
7f00
c200
7f00
6300
d300
e300
c300
c300
ff00
ENDCHAR
STARTCHAR Idiaeresis
ENCODING 207
SWIDTH 480 0
DWIDTH 10 0
BBX 9 10 0 0
BITMAP
0000
3180
6980
7180
6380
3f80
0180
0180
0180
0700
ENDCHAR
STARTCHAR ETH
ENCODING 208
SWIDTH 480 0
DWIDTH 10 0
BBX 9 9 0 0
BITMAP
3000
5980
3f00
0000
0000
0000
3000
5980
3f00
ENDCHAR
STARTCHAR Ntilde
ENCODING 209
SWIDTH 0 0
DWIDTH 0 0
BBX 8 3 -8 10
BITMAP
20
53
3e
ENDCHAR
STARTCHAR Ograve
ENCODING 210
SWIDTH 480 0
DWIDTH 10 0
BBX 7 9 2 0
BITMAP
7c
c6
06
06
06
06
06
06
06
ENDCHAR
STARTCHAR Oacute
ENCODING 211
SWIDTH 480 0
DWIDTH 10 0
BBX 15 14 -6 0
BITMAP
0000
3800
4800
7000
0000
007c
00c6
0006
0006
0006
0006
0006
0006
0006
ENDCHAR
STARTCHAR Ocircumflex
ENCODING 212
SWIDTH 0 0
DWIDTH 0 0
BBX 8 3 -9 10
BITMAP
3e
63
7f
ENDCHAR
STARTCHAR Otilde
ENCODING 213
SWIDTH 0 0
DWIDTH 0 0
BBX 8 3 -9 10
BITMAP
3b
67
7f
ENDCHAR
STARTCHAR Odiaeresis
ENCODING 214
SWIDTH 0 0
DWIDTH 0 0
BBX 9 4 -9 10
BITMAP
0180
3e80
6380
7f00
ENDCHAR
STARTCHAR multiply
ENCODING 215
SWIDTH 0 0
DWIDTH 0 0
BBX 9 4 -9 10
BITMAP
0680
3e80
6380
7f80
ENDCHAR
STARTCHAR Ooblique
ENCODING 216
SWIDTH 0 0
DWIDTH 0 0
BBX 5 4 -5 -4
BITMAP
60
b0
70
30
ENDCHAR
STARTCHAR Ugrave
ENCODING 217
SWIDTH 0 0
DWIDTH 0 0
BBX 8 4 -8 -4
BITMAP
42
b6
76
3e
ENDCHAR
STARTCHAR Uacute
ENCODING 218
SWIDTH 0 0
DWIDTH 0 0
BBX 5 3 -5 -3
BITMAP
00
c0
c0
ENDCHAR
STARTCHAR Ucircumflex
ENCODING 219
SWIDTH 480 0
DWIDTH 10 0
BBX 8 13 1 0
BITMAP
18
3c
66
00
c3
c3
c3
c3
c3
c3
c3
67
3c
ENDCHAR
STARTCHAR Udiaeresis
ENCODING 220
SWIDTH 480 0
DWIDTH 10 0
BBX 8 13 1 0
BITMAP
66
66
00
00
c3
c3
c3
c3
c3
c3
c3
66
3c
ENDCHAR
STARTCHAR Yacute
ENCODING 221
SWIDTH 480 0
DWIDTH 10 0
BBX 8 13 1 0
BITMAP
06
0c
18
00
81
c3
66
3c
18
18
18
18
18
ENDCHAR
STARTCHAR THORN
ENCODING 222
SWIDTH 480 0
DWIDTH 10 0
BBX 7 11 2 0
BITMAP
f0
60
7c
66
66
66
7c
60
60
60
f0
ENDCHAR
STARTCHAR ssharp
ENCODING 223
SWIDTH 480 0
DWIDTH 10 0
BBX 8 17 1 -1
BITMAP
10
10
f8
dc
d6
d6
d6
dc
fc
d6
d3
d3
d3
d6
fc
10
10
ENDCHAR
STARTCHAR agrave
ENCODING 224
SWIDTH 480 0
DWIDTH 10 0
BBX 5 10 3 0
BITMAP
00
60
60
60
60
60
60
70
68
30
ENDCHAR
STARTCHAR aacute
ENCODING 225
SWIDTH 480 0
DWIDTH 10 0
BBX 10 10 0 0
BITMAP
0000
6300
6300
6300
6300
6300
6300
7380
6b40
3180
ENDCHAR
STARTCHAR acircumflex
ENCODING 226
SWIDTH 480 0
DWIDTH 10 0
BBX 7 16 2 0
BITMAP
00
7c
e0
30
18
18
18
18
18
18
18
18
18
1c
1a
0c
ENDCHAR
STARTCHAR atilde
ENCODING 227
SWIDTH 480 0
DWIDTH 10 0
BBX 7 16 2 0
BITMAP
00
70
d8
d8
b8
58
18
18
18
18
18
18
18
1c
1a
0c
ENDCHAR
STARTCHAR adiaeresis
ENCODING 228
SWIDTH 480 0
DWIDTH 10 0
BBX 7 16 2 0
BITMAP
00
98
f8
58
18
18
18
18
18
18
18
18
18
1c
1a
0c
ENDCHAR
STARTCHAR aring
ENCODING 229
SWIDTH 480 0
DWIDTH 10 0
BBX 8 13 1 -3
BITMAP
00
3e
63
03
03
03
03
03
03
03
03
03
03
ENDCHAR
STARTCHAR ae
ENCODING 230
SWIDTH 432 0
DWIDTH 9 0
BBX 8 13 1 -3
BITMAP
00
36
6b
63
73
6b
33
03
03
03
03
03
03
ENDCHAR
STARTCHAR ccedilla
ENCODING 231
SWIDTH 0 0
DWIDTH 0 0
BBX 8 6 -8 10
BITMAP
00
03
3e
60
66
7e
ENDCHAR
STARTCHAR egrave
ENCODING 232
SWIDTH 0 0
DWIDTH 0 0
BBX 3 3 -3 14
BITMAP
00
c0
c0
ENDCHAR
STARTCHAR eacute
ENCODING 233
SWIDTH 0 0
DWIDTH 0 0
BBX 6 4 -6 13
BITMAP
00
ec
78
70
ENDCHAR
STARTCHAR ecircumflex
ENCODING 234
SWIDTH 0 0
DWIDTH 0 0
BBX 7 4 -7 13
BITMAP
00
fa
de
dc
ENDCHAR
STARTCHAR ediaeresis
ENCODING 235
SWIDTH 0 0
DWIDTH 0 0
BBX 4 4 -4 13
BITMAP
00
60
f0
60
ENDCHAR
STARTCHAR igrave
ENCODING 236
SWIDTH 0 0
DWIDTH 0 0
BBX 4 4 -4 13
BITMAP
00
30
60
70
ENDCHAR
STARTCHAR iacute
ENCODING 237
SWIDTH 0 0
DWIDTH 0 0
BBX 6 4 -6 10
BITMAP
00
38
48
70
ENDCHAR
STARTCHAR icircumflex
ENCODING 238
SWIDTH 0 0
DWIDTH 0 0
BBX 8 6 -8 10
BITMAP
00
3c
60
38
60
3c
ENDCHAR
STARTCHAR idiaeresis
ENCODING 239
SWIDTH 480 0
DWIDTH 10 0
BBX 10 9 0 0
BITMAP
0000
3f00
6180
6180
6d80
6d80
6180
6180
3f00
ENDCHAR
STARTCHAR eth
ENCODING 240
SWIDTH 480 0
DWIDTH 10 0
BBX 10 8 0 0
BITMAP
0000
1e00
3300
6180
6180
6180
3300
1e00
ENDCHAR
STARTCHAR ntilde
ENCODING 241
SWIDTH 480 0
DWIDTH 10 0
BBX 10 9 0 -1
BITMAP
0000
1e00
3300
6180
7980
7580
3980
0300
0600
ENDCHAR
STARTCHAR ograve
ENCODING 242
SWIDTH 480 0
DWIDTH 10 0
BBX 10 12 0 0
BITMAP
0000
c000
6000
6000
6000
6480
6fc0
6cc0
6ac0
66c0
60c0
3fc0
ENDCHAR
STARTCHAR oacute
ENCODING 243
SWIDTH 480 0
DWIDTH 10 0
BBX 10 8 0 0
BITMAP
0000
3b80
6ec0
64c0
60c0
70c0
68c0
30c0
ENDCHAR
STARTCHAR ocircumflex
ENCODING 244
SWIDTH 480 0
DWIDTH 10 0
BBX 10 11 0 0
BITMAP
0000
00c0
00c0
01c0
3f80
6000
6600
6b00
6e00
6700
3dc0
ENDCHAR
STARTCHAR otilde
ENCODING 245
SWIDTH 480 0
DWIDTH 10 0
BBX 10 11 0 0
BITMAP
0000
00c0
06c0
0dc0
3f80
6000
6600
6b00
6e00
6700
3dc0
ENDCHAR
STARTCHAR odiaeresis
ENCODING 246
SWIDTH 480 0
DWIDTH 10 0
BBX 10 11 0 0
BITMAP
0000
c000
6000
6000
7f00
6180
0180
3180
6980
7180
3f00
ENDCHAR
STARTCHAR division
ENCODING 247
SWIDTH 480 0
DWIDTH 10 0
BBX 10 11 0 0
BITMAP
0000
0000
0080
0040
3340
7fc0
6dc0
61c0
7180
6980
3100
ENDCHAR
STARTCHAR oslash
ENCODING 248
SWIDTH 480 0
DWIDTH 10 0
BBX 10 11 0 0
BITMAP
0000
00c0
00c0
00c0
3f80
6000
6000
6180
6b40
79c0
3780
ENDCHAR
STARTCHAR ugrave
ENCODING 249
SWIDTH 480 0
DWIDTH 10 0
BBX 10 11 0 0
BITMAP
0000
00c0
00c0
01c0
3f80
6600
6300
6180
7980
34c0
1840
ENDCHAR
STARTCHAR uacute
ENCODING 250
SWIDTH 480 0
DWIDTH 10 0
BBX 10 10 0 0
BITMAP
0000
36c0
6ec0
76c0
66c0
3ec0
06c0
06c0
06c0
0d80
ENDCHAR
STARTCHAR ucircumflex
ENCODING 251
SWIDTH 480 0
DWIDTH 10 0
BBX 10 8 0 0
BITMAP
0000
3000
6800
7500
67c0
7a80
3000
0000
ENDCHAR
STARTCHAR udiaeresis
ENCODING 252
SWIDTH 480 0
DWIDTH 10 0
BBX 8 13 1 0
BITMAP
66
66
00
00
00
c3
c3
c3
c3
c3
c3
67
3b
ENDCHAR
STARTCHAR yacute
ENCODING 253
SWIDTH 480 0
DWIDTH 10 0
BBX 8 17 1 -4
BITMAP
0c
18
30
00
00
00
c3
c3
c3
c3
c3
67
3b
03
c3
66
3c
ENDCHAR
STARTCHAR thorn
ENCODING 254
SWIDTH 480 0
DWIDTH 10 0
BBX 6 8 2 0
BITMAP
e0
78
6c
6c
78
60
60
e0
ENDCHAR
STARTCHAR ydiaeresis
ENCODING 255
SWIDTH 480 0
DWIDTH 10 0
BBX 8 17 1 -4
BITMAP
66
66
00
00
00
00
c3
c3
c3
c3
c3
67
3b
03
c3
66
3c
ENDCHAR
ENDFONT
